<?xml version="1.0" standalone="no"?>
<svg
  width="600"
  height="600"
  viewBox="0 0 600 600"
  xmlns="http://www.w3.org/2000/svg"
>
  <g transform="translate(300,300)">
    <path d="M137.8,-184.6C178.3,-188.4,210.6,-149.7,192.2,-110.9C173.8,-72.2,104.7,-33.6,92.3,9.3C79.9,52.1,124.2,99.1,132.1,145.4C140.1,191.7,111.6,237.4,77.9,232.2C44.1,227.1,5.2,171.1,-25.1,138.1C-55.3,105.1,-76.8,95.1,-85.7,78C-94.5,60.9,-90.8,36.7,-83.1,18.6C-75.4,0.5,-63.6,-11.6,-70.3,-46.8C-77.1,-82,-102.3,-140.3,-93.7,-151C-85.1,-161.7,-42.5,-124.8,3.1,-129.6C48.7,-134.4,97.3,-180.8,137.8,-184.6Z" fill="#de6161" />
  </g>
</svg>
  